:SAMPLES-PER-SECOND 30
:FULLY-SPECIFIED
:DEGREES
198
root  -1.71655 18.896 -32.859 44.6512 -7.83096 11.1849
RightUpLeg  -17.0882 -4.35118 -4.52213
RightLeg  82.673 15.5104 -5.4996
RightFoot  -24.8869 0.0926549 0.0930438
RightToes  5.82077e-011 -3.18055e-015 -2.98177e-016
Spine  43.2006 -1.12515 -6.05664
Spine1  -3.40972 -2.49158 -8.96413
HEad  -21.4336 -2.13559 5.49355
LeftShoulder1  -3.88251e-019 9.70628e-020 -3.87848e-018
LeftArm  6.59412 10.1783 -66.093
LeftForeArm  11.9696 -28.6433 6.46627
LeftHand  -13.5859 -13.8788 72.5855
RightShoulder  2.93378 8.19519 13.5882
RightArm  1.16922 14.8074 70.9214
RightForeArm  12.8171 13.8087 -9.11657
RightHand  -12.0227 10.5814 -74.5503
LeftUpLeg  -51.7469 -4.22528 -22.8752
LeftLeg  109.859 -24.5025 24.3079
LeftFoot  -17.2878 -0.681065 -17.226
LeftToes  9.37148e-011 4.50685e-012 -4.11107e-011
199
root  -1.35848 18.7662 -32.1624 47.3302 -7.34362 12.4426
RightUpLeg  -18.185 -7.03371 -6.29318
RightLeg  81.2026 15.5594 -3.77624
RightFoot  -23.7293 0.294898 2.37968
RightToes  5.82077e-011 -3.18055e-015 -2.98177e-016
Spine  39.5642 -2.01215 -4.71573
Spine1  -2.83153 -2.90936 -7.23634
HEad  -21.2502 -2.7947 5.07147
LeftShoulder1  -3.88251e-019 9.70628e-020 -3.87848e-018
LeftArm  3.88638 7.52995 -65.5188
LeftForeArm  13.4182 -31.9306 7.59996
LeftHand  -13.2928 -13.6735 71.9839
RightShoulder  3.27327 8.43082 15.4182
RightArm  1.18739 13.5599 69.5075
RightForeArm  15.9735 14.2802 -9.28245
RightHand  -12.3591 10.8127 -75.2958
LeftUpLeg  -52.2958 -6.155 -24.1723
LeftLeg  107.803 -23.8977 25.0763
LeftFoot  -16.1402 -0.513957 -17.5297
LeftToes  9.37148e-011 4.50685e-012 -4.11107e-011
200
root  -0.90509 18.7319 -31.512 49.6121 -6.88918 12.0878
RightUpLeg  -19.7786 -8.52645 -7.15629
RightLeg  80.8593 15.8618 -0.912728
RightFoot  -21.2177 0.605492 7.88879
RightToes  5.82077e-011 -3.18055e-015 -2.98177e-016
Spine  37.0686 -2.88167 -2.30065
Spine1  -3.58965 -3.0737 -5.90552
HEad  -20.8823 -3.08896 3.95438
LeftShoulder1  -3.88251e-019 9.70628e-020 -3.87848e-018
LeftArm  1.68571 3.34958 -64.2154
LeftForeArm  12.9879 -34.1192 8.19915
LeftHand  -12.6632 -13.5718 69.63
RightShoulder  3.40422 8.59202 15.9926
RightArm  0.327952 11.674 69.1596
RightForeArm  19.0306 14.2945 -9.5739
RightHand  -12.5415 10.9184 -75.7543
LeftUpLeg  -52.6562 -7.63281 -23.5136
LeftLeg  107.302 -22.5526 22.9259
LeftFoot  -16.0461 -0.473662 -16.5811
LeftToes  9.37148e-011 4.50685e-012 -4.11107e-011
201
root  -0.519521 18.8522 -30.9166 50.7483 -6.86577 10.4579
RightUpLeg  -21.6514 -8.00498 -7.27266
RightLeg  81.5514 16.1243 1.36638
RightFoot  -16.6625 0.460931 13.7349
RightToes  5.82077e-011 -3.18055e-015 -2.98177e-016
Spine  37.1852 -2.95567 -0.53168
Spine1  -5.6786 -2.87518 -4.11189
HEad  -20.8157 -2.80848 2.73585
LeftShoulder1  -3.88251e-019 9.70628e-020 -3.87848e-018
LeftArm  -0.307892 -2.53602 -62.1078
LeftForeArm  10.9096 -34.579 8.24778
LeftHand  -11.8441 -13.5633 66.0949
RightShoulder  3.39874 8.74895 15.7103
RightArm  -0.0814679 10.2442 69.4411
RightForeArm  21.2684 13.7149 -9.47567
RightHand  -12.7126 10.9907 -76.2671
LeftUpLeg  -52.4398 -8.29665 -21.5286
LeftLeg  107.659 -20.7953 18.9367
LeftFoot  -15.691 -0.361764 -13.9199
LeftToes  9.37148e-011 4.50685e-012 -4.11107e-011
202
root  -0.229199 19.0737 -30.366 50.8674 -7.64451 7.79533
RightUpLeg  -23.7031 -5.48392 -6.95285
RightLeg  83.1348 16.1569 2.27993
RightFoot  -12.5442 -0.0489802 16.9078
RightToes  5.82077e-011 -3.18055e-015 -2.98177e-016
Spine  39.5191 -2.05421 -0.104734
Spine1  -8.31987 -2.11342 -2.07334
HEad  -21.3586 -2.00836 1.81863
LeftShoulder1  -3.88251e-019 9.70628e-020 -3.87848e-018
LeftArm  -2.37394 -9.89489 -59.4862
LeftForeArm  8.52237 -32.752 7.59484
LeftHand  -11.1012 -13.3811 63.2528
RightShoulder  3.46302 9.00149 15.7167
RightArm  0.350133 9.59147 69.6866
RightForeArm  23.0901 13.0543 -9.04056
RightHand  -13.0311 11.1704 -77.0504
LeftUpLeg  -51.2658 -7.52185 -19.4669
LeftLeg  107.405 -19.2114 15.5595
LeftFoot  -14.9501 -0.224617 -11.3941
LeftToes  9.37148e-011 4.50685e-012 -4.11107e-011
203
root  0.0792425 19.3032 -29.8438 50.8159 -8.51701 4.43053
RightUpLeg  -25.9651 -2.56775 -6.09177
RightLeg  85.5586 16.0485 2.55209
RightFoot  -11.5293 -0.197502 15.0659
RightToes  5.82077e-011 -3.18055e-015 -2.98177e-016
Spine  42.4819 -1.03606 0.306817
Spine1  -11.0704 -1.08602 -0.585376
HEad  -22.0526 -0.800037 0.893369
LeftShoulder1  -3.88251e-019 9.70628e-020 -3.87848e-018
LeftArm  -4.51355 -17.2505 -56.3719
LeftForeArm  6.34477 -29.4564 6.50225
LeftHand  -10.2772 -12.949 60.5396
RightShoulder  3.59208 9.29869 16.0502
RightArm  0.811159 8.84954 69.9866
RightForeArm  25.146 12.7889 -8.66329
RightHand  -13.416 11.4391 -77.7948
LeftUpLeg  -49.5339 -5.61538 -17.7916
LeftLeg  106.093 -18.2707 14.1538
LeftFoot  -14.8957 -0.206393 -10.5301
LeftToes  9.37148e-011 4.50685e-012 -4.11107e-011
204
root  0.442103 19.5157 -29.3276 50.8752 -8.21478 0.97071
RightUpLeg  -28.4041 -0.914592 -4.24693
RightLeg  88.6298 15.8886 2.09072
RightFoot  -13.2336 0.0342078 10.1134
RightToes  5.82077e-011 -3.18055e-015 -2.98177e-016
Spine  45.2471 -0.889405 1.92584
Spine1  -13.7218 -0.363831 0.529249
HEad  -22.4426 0.693044 -0.285337
LeftShoulder1  -3.88251e-019 9.70628e-020 -3.87848e-018
LeftArm  -7.11009 -23.7633 -52.6702
LeftForeArm  4.63773 -25.6857 4.99145
LeftHand  -8.78497 -12.1533 55.0445
RightShoulder  3.63886 9.56373 15.9302
RightArm  0.89876 7.69542 70.7653
RightForeArm  27.1557 12.6669 -8.41898
RightHand  -13.7342 11.6556 -78.4047
LeftUpLeg  -47.7814 -3.70865 -15.9976
LeftLeg  104.121 -18.009 14.8455
LeftFoot  -15.4855 -0.272059 -10.9829
LeftToes  9.37148e-011 4.50685e-012 -4.11107e-011
205
root  0.734395 19.6934 -28.8366 50.8493 -6.90965 -1.98827
RightUpLeg  -31.4441 -0.404197 -1.61275
RightLeg  92.4625 15.8624 0.0531005
RightFoot  -15.3465 0.162098 5.94466
RightToes  5.82077e-011 -3.18055e-015 -2.98177e-016
Spine  47.7235 -1.05964 3.39162
Spine1  -15.7517 0.0228067 2.64165
HEad  -22.8737 2.47258 -1.38272
LeftShoulder1  -3.88251e-019 9.70628e-020 -3.87848e-018
LeftArm  -9.82231 -29.8486 -49.1484
LeftForeArm  3.88511 -20.69 3.34181
LeftHand  -6.72953 -10.6625 47.2913
RightShoulder  3.6288 9.81066 15.5038
RightArm  1.18232 6.94023 71.8837
RightForeArm  28.6778 12.4321 -8.02636
RightHand  -13.9882 11.7621 -79.0944
LeftUpLeg  -46.1892 -2.19963 -14.0925
LeftLeg  101.827 -18.1155 17.0811
LeftFoot  -15.715 -0.306021 -11.484
LeftToes  9.37148e-011 4.50685e-012 -4.11107e-011
